<svg width="34" height="27" fill="none" xmlns="http://www.w3.org/2000/svg"><path d="M6.947.795C6.06 3.404 5.288 6.032 4.565 8.67A48.633 48.633 0 013.639.192c0-.419-1.87-.107-1.86.506a57.224 57.224 0 001.677 12.098C2.308 17.254 1.228 21.732.004 26.2c-.097.38 1.716.136 1.842-.34.867-3.174 1.658-6.356 2.459-9.54.78 3.125 1.59 6.24 2.198 9.403.097.497 1.929.049 1.861-.506-.829-4.341-2.044-8.595-3.037-12.887C6.359 8.35 7.457 4.387 8.779.464c.125-.36-1.678-.146-1.832.331zM20.843 1.31c.048-.972-1.852-.778-1.929.118a1.897 1.897 0 000 .233.568.568 0 00-.096.205 133.296 133.296 0 01-3.887 12.731c-.617 1.879-1.099 3.786-1.61 5.694-.125-6.463-.125-12.897-.154-19.32 0-.974-1.929-.75-1.929.136 0 8.107 0 16.196.29 24.333a.578.578 0 000 .292l.057.428c.116.837 1.929.467 1.929-.302 1.572-4.058 2.382-8.36 3.751-12.497.502-1.519 1.013-3.027 1.504-4.536-.067 5.84.058 11.68.203 17.52 0 .974 1.523.75 1.842.059l.058-.117a.48.48 0 000-.536c-.241-8.234-.415-16.332-.03-24.44zM33.302.201A51.096 51.096 0 0124.17.25c-.483 0-2.16.827-1.187.876.974.049 2.112.107 3.163.146-.096.078-.163.165-.154.253.28 8.186-1.022 16.78.183 24.888.058.41 1.929 0 1.861-.506-1.186-8.01.068-16.547-.173-24.596a39.612 39.612 0 005.14-.263c.82-.078 1.61-1.002.299-.847z" fill="#231F20"/></svg>